<svg width="832" height="843" viewBox="0 0 832 843" fill="none" xmlns="http://www.w3.org/2000/svg">
<path d="M585 246C636 260.5 651.5 258.5 677.5 278C722.713 311.91 739.659 413.158 722.713 454.039C701.531 505.14 638.647 520.472 611 544.5C581.606 570.047 531.012 583.751 494 604.5C461 623 434.098 644.553 351.152 633.771C268.207 622.989 197.043 546.818 177.493 459.576C157.943 372.335 213.984 257.251 325.872 214.924C437.76 172.597 521.541 227.958 585 246Z" stroke="#FF8100"/>
<path d="M588.5 271C629.304 284.426 646.5 300 667.818 322.027C690.046 354.337 730.584 428.409 714.91 466.221C695.318 513.487 635.5 552.5 552 565C515.444 570.472 484 590.5 457 598.5C426.195 607.627 360.76 617.779 324 613C301.5 610.075 222.079 522.5 210.615 471.343C192.533 390.651 244.367 284.205 347.857 245.055C451.346 205.905 530.536 251.927 588.5 271Z" stroke="#FF8100"/>
<path d="M573 318.5C611.369 326.745 632 344.478 643.853 361.707C662.318 388.548 695.995 450.083 682.974 481.496C666.698 520.761 616.605 556.404 556 580.5C514.5 597 479.5 608.5 453.5 608.5C381.808 608.5 405.734 640.785 342 632.5C278.265 624.215 279.057 552.786 264.035 485.751C249.013 418.716 292.074 330.287 378.047 297.763C464.02 265.24 523.438 307.85 573 318.5Z" stroke="#FF8100"/>
</svg>
